# MagicaVoxel @ Ephtracy

# group
o 

# material
mtllib capipi head.mtl
usemtl palette

# normals
vn -1 0 0
vn 1 0 0
vn 0 0 1
vn 0 0 -1
vn 0 -1 0
vn 0 1 0

# texcoords
vt 0.0488281 0.5
vt 0.0722656 0.5
vt 0.376953 0.5
vt 0.955078 0.5
vt 0.958984 0.5
vt 0.970703 0.5
vt 0.994141 0.5

# verts
v -1 5.7 0.5
v -1 5.7 -1.3
v -1 6.9 0.5
v -1 6.9 0.3
v -1 6.9 -1.2
v -1 6.9 -1.3
v -1 7 0.3
v -1 7 -1.2
v -0.9 5.6 0.5
v -0.9 5.6 -1.4
v -0.9 5.7 0.6
v -0.9 5.7 0.5
v -0.9 5.7 -1.3
v -0.9 6.8 0.6
v -0.9 6.8 0.5
v -0.9 6.9 0.5
v -0.9 6.9 0.3
v -0.9 6.9 -1.2
v -0.9 6.9 -1.3
v -0.9 6.9 -1.4
v -0.9 7 0.5
v -0.9 7 0.3
v -0.9 7 -1
v -0.9 7 -1.2
v -0.9 7 -1.3
v -0.9 7.1 0.3
v -0.9 7.1 -1
v -0.8 5.5 0.5
v -0.8 5.5 -1.3
v -0.8 5.6 0.6
v -0.8 5.6 0.5
v -0.8 5.6 -1.3
v -0.8 5.7 0.6
v -0.8 5.7 0.5
v -0.8 5.7 -1.4
v -0.8 5.7 -1.5
v -0.8 6.7 -1.4
v -0.8 6.7 -1.5
v -0.8 6.8 0.6
v -0.8 6.8 0.5
v -0.8 6.9 0.6
v -0.8 6.9 0.5
v -0.8 6.9 -1.3
v -0.8 6.9 -1.4
v -0.8 7 0.4
v -0.8 7 0.3
v -0.8 7 -1
v -0.8 7 -1.1
v -0.8 7 -1.3
v -0.8 7 -1.4
v -0.8 7.1 0.3
v -0.8 7.1 -0.5
v -0.8 7.1 -1
v -0.8 7.1 -1.1
v -0.8 7.9 0.4
v -0.8 7.9 -0.5
v -0.7 6.4 0.7
v -0.7 6.4 0.6
v -0.7 6.6 0.7
v -0.7 6.6 0.6
v -0.7 7.9 0.4
v -0.7 7.9 -0.4
v -0.7 8 0.4
v -0.7 8 -0.4
v -0.6 6.3 0.7
v -0.6 6.3 0.6
v -0.6 6.4 0.7
v -0.6 6.4 0.6
v -0.6 6.6 0.7
v -0.6 6.6 0.6
v -0.6 6.7 0.7
v -0.6 6.7 0.6
v -0.5 6.2 0.7
v -0.5 6.2 0.6
v -0.5 6.3 0.7
v -0.5 6.3 0.6
v -0.5 6.7 0.7
v -0.5 6.7 0.6
v -0.5 6.8 0.7
v -0.5 6.8 0.6
v 0.0999997 6.4 0.7
v 0.0999997 6.4 0.6
v 0.0999997 6.6 0.7
v 0.0999997 6.6 0.6
v 0.2 6.3 0.7
v 0.2 6.3 0.6
v 0.2 6.4 0.7
v 0.2 6.4 0.6
v 0.2 6.6 0.7
v 0.2 6.6 0.6
v 0.2 6.7 0.7
v 0.2 6.7 0.6
v 0.3 6.2 0.7
v 0.3 6.2 0.6
v 0.3 6.3 0.7
v 0.3 6.3 0.6
v 0.3 6.7 0.7
v 0.3 6.7 0.6
v 0.3 6.8 0.7
v 0.3 6.8 0.6
v 0.3 7 0.4
v 0.3 7 -0.0999998
v 0.3 7.1 -0.0999998
v 0.3 7.1 -0.5
v 0.3 7.9 0.4
v 0.3 7.9 -0.5
v 0.4 7.9 0.4
v 0.4 7.9 -0.5
v 0.4 8 0.4
v 0.4 8 -0.5
v -0.4 7.9 0.4
v -0.4 7.9 -0.4
v -0.4 8 0.4
v -0.4 8 -0.4
v -0.3 6.2 0.7
v -0.3 6.2 0.6
v -0.3 6.3 0.7
v -0.3 6.3 0.6
v -0.3 6.7 0.7
v -0.3 6.7 0.6
v -0.3 6.8 0.7
v -0.3 6.8 0.6
v -0.3 7 0.4
v -0.3 7 -0.0999998
v -0.3 7.1 -0.0999998
v -0.3 7.1 -0.5
v -0.3 7.9 0.4
v -0.3 7.9 -0.5
v -0.2 6.3 0.7
v -0.2 6.3 0.6
v -0.2 6.4 0.7
v -0.2 6.4 0.6
v -0.2 6.6 0.7
v -0.2 6.6 0.6
v -0.2 6.7 0.7
v -0.2 6.7 0.6
v -0.1 6.4 0.7
v -0.1 6.4 0.6
v -0.1 6.6 0.7
v -0.1 6.6 0.6
v 0.5 6.2 0.7
v 0.5 6.2 0.6
v 0.5 6.3 0.7
v 0.5 6.3 0.6
v 0.5 6.7 0.7
v 0.5 6.7 0.6
v 0.5 6.8 0.7
v 0.5 6.8 0.6
v 0.6 6.3 0.7
v 0.6 6.3 0.6
v 0.6 6.4 0.7
v 0.6 6.4 0.6
v 0.6 6.6 0.7
v 0.6 6.6 0.6
v 0.6 6.7 0.7
v 0.6 6.7 0.6
v 0.7 6.4 0.7
v 0.7 6.4 0.6
v 0.7 6.6 0.7
v 0.7 6.6 0.6
v 0.7 7.9 0.4
v 0.7 7.9 -0.5
v 0.7 8 0.4
v 0.7 8 -0.5
v 0.8 5.5 0.5
v 0.8 5.5 -1.3
v 0.8 5.6 0.6
v 0.8 5.6 0.5
v 0.8 5.6 -1.3
v 0.8 5.7 0.6
v 0.8 5.7 0.5
v 0.8 5.7 -1.4
v 0.8 5.7 -1.5
v 0.8 6.7 -1.4
v 0.8 6.7 -1.5
v 0.8 6.8 0.6
v 0.8 6.8 0.5
v 0.8 6.9 0.6
v 0.8 6.9 0.5
v 0.8 6.9 -1.3
v 0.8 6.9 -1.4
v 0.8 7 0.4
v 0.8 7 0.3
v 0.8 7 -1
v 0.8 7 -1.1
v 0.8 7 -1.3
v 0.8 7 -1.4
v 0.8 7.1 0.3
v 0.8 7.1 -0.5
v 0.8 7.1 -1
v 0.8 7.1 -1.1
v 0.8 7.9 0.4
v 0.8 7.9 -0.5
v 0.9 5.6 0.5
v 0.9 5.6 -1.4
v 0.9 5.7 0.6
v 0.9 5.7 0.5
v 0.9 5.7 -1.3
v 0.9 6.8 0.6
v 0.9 6.8 0.5
v 0.9 6.9 0.5
v 0.9 6.9 0.3
v 0.9 6.9 -1.2
v 0.9 6.9 -1.3
v 0.9 6.9 -1.4
v 0.9 7 0.5
v 0.9 7 0.3
v 0.9 7 -1
v 0.9 7 -1.2
v 0.9 7 -1.3
v 0.9 7.1 0.3
v 0.9 7.1 -1
v 1 5.7 0.5
v 1 5.7 -1.3
v 1 6.9 0.5
v 1 6.9 0.3
v 1 6.9 -1.2
v 1 6.9 -1.3
v 1 7 0.3
v 1 7 -1.2
v -0.7 6.4 0.7
v -0.7 6.6 0.7
v -0.6 6.3 0.7
v -0.6 6.4 0.7
v -0.6 6.6 0.7
v -0.6 6.7 0.7
v -0.5 6.2 0.7
v -0.5 6.3 0.7
v -0.5 6.5 0.7
v -0.5 6.6 0.7
v -0.5 6.7 0.7
v -0.5 6.8 0.7
v -0.4 6.4 0.7
v -0.4 6.5 0.7
v -0.4 6.6 0.7
v -0.3 6.2 0.7
v -0.3 6.3 0.7
v -0.3 6.4 0.7
v -0.3 6.5 0.7
v -0.3 6.7 0.7
v -0.3 6.8 0.7
v -0.2 6.3 0.7
v -0.2 6.4 0.7
v -0.2 6.6 0.7
v -0.2 6.7 0.7
v -0.1 6.4 0.7
v -0.1 6.6 0.7
v 0.0999997 6.4 0.7
v 0.0999997 6.6 0.7
v 0.2 6.3 0.7
v 0.2 6.4 0.7
v 0.2 6.6 0.7
v 0.2 6.7 0.7
v 0.3 6.2 0.7
v 0.3 6.3 0.7
v 0.3 6.5 0.7
v 0.3 6.6 0.7
v 0.3 6.7 0.7
v 0.3 6.8 0.7
v 0.4 6.4 0.7
v 0.4 6.5 0.7
v 0.4 6.6 0.7
v 0.5 6.2 0.7
v 0.5 6.3 0.7
v 0.5 6.4 0.7
v 0.5 6.5 0.7
v 0.5 6.7 0.7
v 0.5 6.8 0.7
v 0.6 6.3 0.7
v 0.6 6.4 0.7
v 0.6 6.6 0.7
v 0.6 6.7 0.7
v 0.7 6.4 0.7
v 0.7 6.6 0.7
v -0.9 5.7 0.6
v -0.9 6.8 0.6
v -0.8 5.6 0.6
v -0.8 5.7 0.6
v -0.8 6.8 0.6
v -0.8 6.9 0.6
v -0.7 6.4 0.6
v -0.7 6.6 0.6
v -0.6 6.3 0.6
v -0.6 6.4 0.6
v -0.6 6.6 0.6
v -0.6 6.7 0.6
v -0.5 6.2 0.6
v -0.5 6.3 0.6
v -0.5 6.7 0.6
v -0.5 6.8 0.6
v -0.3 6 0.6
v -0.3 6.1 0.6
v -0.3 6.2 0.6
v -0.3 6.3 0.6
v -0.3 6.7 0.6
v -0.3 6.8 0.6
v -0.2 5.9 0.6
v -0.2 6 0.6
v -0.2 6.1 0.6
v -0.2 6.3 0.6
v -0.2 6.4 0.6
v -0.2 6.6 0.6
v -0.2 6.7 0.6
v -0.1 5.9 0.6
v -0.1 6 0.6
v -0.1 6.1 0.6
v -0.1 6.4 0.6
v -0.1 6.6 0.6
v 0.0999997 5.9 0.6
v 0.0999997 6 0.6
v 0.0999997 6.1 0.6
v 0.0999997 6.4 0.6
v 0.0999997 6.6 0.6
v 0.2 5.9 0.6
v 0.2 6 0.6
v 0.2 6.1 0.6
v 0.2 6.3 0.6
v 0.2 6.4 0.6
v 0.2 6.6 0.6
v 0.2 6.7 0.6
v 0.3 6 0.6
v 0.3 6.1 0.6
v 0.3 6.2 0.6
v 0.3 6.3 0.6
v 0.3 6.7 0.6
v 0.3 6.8 0.6
v 0.5 6.2 0.6
v 0.5 6.3 0.6
v 0.5 6.7 0.6
v 0.5 6.8 0.6
v 0.6 6.3 0.6
v 0.6 6.4 0.6
v 0.6 6.6 0.6
v 0.6 6.7 0.6
v 0.7 6.4 0.6
v 0.7 6.6 0.6
v 0.8 5.6 0.6
v 0.8 5.7 0.6
v 0.8 6.8 0.6
v 0.8 6.9 0.6
v 0.9 5.7 0.6
v 0.9 6.8 0.6
v -1 5.7 0.5
v -1 6.9 0.5
v -0.9 5.6 0.5
v -0.9 5.7 0.5
v -0.9 6.8 0.5
v -0.9 6.9 0.5
v -0.9 7 0.5
v -0.8 5.5 0.5
v -0.8 5.6 0.5
v -0.8 5.7 0.5
v -0.8 6.8 0.5
v -0.8 6.9 0.5
v 0.8 5.5 0.5
v 0.8 5.6 0.5
v 0.8 5.7 0.5
v 0.8 6.8 0.5
v 0.8 6.9 0.5
v 0.9 5.6 0.5
v 0.9 5.7 0.5
v 0.9 6.8 0.5
v 0.9 6.9 0.5
v 0.9 7 0.5
v 1 5.7 0.5
v 1 6.9 0.5
v -0.8 7 0.4
v -0.8 7.9 0.4
v -0.7 7 0.4
v -0.7 7.9 0.4
v -0.7 8 0.4
v -0.4 7 0.4
v -0.4 7.9 0.4
v -0.4 8 0.4
v -0.3 7 0.4
v -0.3 7.9 0.4
v 0.3 7 0.4
v 0.3 7.9 0.4
v 0.4 7 0.4
v 0.4 7.9 0.4
v 0.4 8 0.4
v 0.7 7 0.4
v 0.7 7.9 0.4
v 0.7 8 0.4
v 0.8 7 0.4
v 0.8 7.9 0.4
v -1 6.9 0.3
v -1 7 0.3
v -0.9 6.9 0.3
v -0.9 7 0.3
v -0.9 7.1 0.3
v -0.8 7 0.3
v -0.8 7.1 0.3
v 0.8 7 0.3
v 0.8 7.1 0.3
v 0.9 6.9 0.3
v 0.9 7 0.3
v 0.9 7.1 0.3
v 1 6.9 0.3
v 1 7 0.3
v -0.3 7 -0.0999998
v -0.3 7.1 -0.0999998
v 0.3 7 -0.0999998
v 0.3 7.1 -0.0999998
v -0.7 7.9 -0.4
v -0.7 8 -0.4
v -0.4 7.9 -0.4
v -0.4 8 -0.4
v -0.8 7.1 -0.5
v -0.8 7.9 -0.5
v -0.3 7.1 -0.5
v -0.3 7.9 -0.5
v 0.3 7.1 -0.5
v 0.3 7.9 -0.5
v 0.4 7.9 -0.5
v 0.4 8 -0.5
v 0.7 7.9 -0.5
v 0.7 8 -0.5
v 0.8 7.1 -0.5
v 0.8 7.9 -0.5
v -0.9 7 -1
v -0.9 7.1 -1
v -0.8 7 -1
v -0.8 7.1 -1
v 0.8 7 -1
v 0.8 7.1 -1
v 0.9 7 -1
v 0.9 7.1 -1
v -0.8 7 -1.1
v -0.8 7.1 -1.1
v 0.8 7 -1.1
v 0.8 7.1 -1.1
v -1 6.9 -1.2
v -1 7 -1.2
v -0.9 6.9 -1.2
v -0.9 7 -1.2
v 0.9 6.9 -1.2
v 0.9 7 -1.2
v 1 6.9 -1.2
v 1 7 -1.2
v -1 5.7 -1.3
v -1 6.9 -1.3
v -0.9 5.7 -1.3
v -0.9 6.9 -1.3
v -0.9 7 -1.3
v -0.8 5.5 -1.3
v -0.8 5.6 -1.3
v -0.8 6.9 -1.3
v -0.8 7 -1.3
v 0.8 5.5 -1.3
v 0.8 5.6 -1.3
v 0.8 6.9 -1.3
v 0.8 7 -1.3
v 0.9 5.7 -1.3
v 0.9 6.9 -1.3
v 0.9 7 -1.3
v 1 5.7 -1.3
v 1 6.9 -1.3
v -0.9 5.6 -1.4
v -0.9 6.9 -1.4
v -0.8 5.7 -1.4
v -0.8 6.7 -1.4
v -0.8 6.9 -1.4
v -0.8 7 -1.4
v 0.8 5.7 -1.4
v 0.8 6.7 -1.4
v 0.8 6.9 -1.4
v 0.8 7 -1.4
v 0.9 5.6 -1.4
v 0.9 6.9 -1.4
v -0.8 5.7 -1.5
v -0.8 6.7 -1.5
v 0.8 5.7 -1.5
v 0.8 6.7 -1.5
v -0.8 5.5 0.5
v 0.8 5.5 0.5
v -0.8 5.5 -1.3
v 0.8 5.5 -1.3
v -0.8 5.6 0.6
v 0.8 5.6 0.6
v -0.9 5.6 0.5
v -0.8 5.6 0.5
v 0.8 5.6 0.5
v 0.9 5.6 0.5
v -0.8 5.6 -1.3
v 0.8 5.6 -1.3
v -0.9 5.6 -1.4
v 0.9 5.6 -1.4
v -0.9 5.7 0.6
v -0.8 5.7 0.6
v 0.8 5.7 0.6
v 0.9 5.7 0.6
v -1 5.7 0.5
v -0.9 5.7 0.5
v -0.8 5.7 0.5
v 0.8 5.7 0.5
v 0.9 5.7 0.5
v 1 5.7 0.5
v -1 5.7 -1.3
v -0.9 5.7 -1.3
v 0.9 5.7 -1.3
v 1 5.7 -1.3
v -0.8 5.7 -1.4
v 0.8 5.7 -1.4
v -0.8 5.7 -1.5
v 0.8 5.7 -1.5
v -0.5 6.2 0.7
v -0.3 6.2 0.7
v 0.3 6.2 0.7
v 0.5 6.2 0.7
v -0.5 6.2 0.6
v -0.3 6.2 0.6
v 0.3 6.2 0.6
v 0.5 6.2 0.6
v -0.6 6.3 0.7
v -0.5 6.3 0.7
v -0.3 6.3 0.7
v -0.2 6.3 0.7
v 0.2 6.3 0.7
v 0.3 6.3 0.7
v 0.5 6.3 0.7
v 0.6 6.3 0.7
v -0.6 6.3 0.6
v -0.5 6.3 0.6
v -0.3 6.3 0.6
v -0.2 6.3 0.6
v 0.2 6.3 0.6
v 0.3 6.3 0.6
v 0.5 6.3 0.6
v 0.6 6.3 0.6
v -0.7 6.4 0.7
v -0.6 6.4 0.7
v -0.2 6.4 0.7
v -0.1 6.4 0.7
v 0.0999997 6.4 0.7
v 0.2 6.4 0.7
v 0.6 6.4 0.7
v 0.7 6.4 0.7
v -0.7 6.4 0.6
v -0.6 6.4 0.6
v -0.2 6.4 0.6
v -0.1 6.4 0.6
v 0.0999997 6.4 0.6
v 0.2 6.4 0.6
v 0.6 6.4 0.6
v 0.7 6.4 0.6
v -0.7 6.6 0.7
v -0.6 6.6 0.7
v -0.2 6.6 0.7
v -0.1 6.6 0.7
v 0.0999997 6.6 0.7
v 0.2 6.6 0.7
v 0.6 6.6 0.7
v 0.7 6.6 0.7
v -0.7 6.6 0.6
v -0.6 6.6 0.6
v -0.2 6.6 0.6
v -0.1 6.6 0.6
v 0.0999997 6.6 0.6
v 0.2 6.6 0.6
v 0.6 6.6 0.6
v 0.7 6.6 0.6
v -0.6 6.7 0.7
v -0.5 6.7 0.7
v -0.3 6.7 0.7
v -0.2 6.7 0.7
v 0.2 6.7 0.7
v 0.3 6.7 0.7
v 0.5 6.7 0.7
v 0.6 6.7 0.7
v -0.6 6.7 0.6
v -0.5 6.7 0.6
v -0.3 6.7 0.6
v -0.2 6.7 0.6
v 0.2 6.7 0.6
v 0.3 6.7 0.6
v 0.5 6.7 0.6
v 0.6 6.7 0.6
v -0.8 6.7 -1.4
v 0.8 6.7 -1.4
v -0.8 6.7 -1.5
v 0.8 6.7 -1.5
v -0.5 6.8 0.7
v -0.3 6.8 0.7
v 0.3 6.8 0.7
v 0.5 6.8 0.7
v -0.9 6.8 0.6
v -0.8 6.8 0.6
v -0.5 6.8 0.6
v -0.3 6.8 0.6
v 0.3 6.8 0.6
v 0.5 6.8 0.6
v 0.8 6.8 0.6
v 0.9 6.8 0.6
v -0.9 6.8 0.5
v -0.8 6.8 0.5
v 0.8 6.8 0.5
v 0.9 6.8 0.5
v -0.8 6.9 0.6
v 0.8 6.9 0.6
v -1 6.9 0.5
v -0.9 6.9 0.5
v -0.8 6.9 0.5
v 0.8 6.9 0.5
v 0.9 6.9 0.5
v 1 6.9 0.5
v -1 6.9 0.3
v -0.9 6.9 0.3
v 0.9 6.9 0.3
v 1 6.9 0.3
v -1 6.9 -1.2
v -0.9 6.9 -1.2
v 0.9 6.9 -1.2
v 1 6.9 -1.2
v -1 6.9 -1.3
v -0.9 6.9 -1.3
v -0.8 6.9 -1.3
v 0.8 6.9 -1.3
v 0.9 6.9 -1.3
v 1 6.9 -1.3
v -0.9 6.9 -1.4
v -0.8 6.9 -1.4
v 0.8 6.9 -1.4
v 0.9 6.9 -1.4
v -0.9 7 0.5
v 0.9 7 0.5
v -0.8 7 0.4
v -0.7 7 0.4
v -0.4 7 0.4
v -0.3 7 0.4
v 0.3 7 0.4
v 0.4 7 0.4
v 0.7 7 0.4
v 0.8 7 0.4
v -1 7 0.3
v -0.9 7 0.3
v -0.8 7 0.3
v 0.8 7 0.3
v 0.9 7 0.3
v 1 7 0.3
v -0.3 7 -0.0999998
v 0.3 7 -0.0999998
v -0.9 7 -1
v -0.8 7 -1
v 0.8 7 -1
v 0.9 7 -1
v -0.8 7 -1.1
v 0.8 7 -1.1
v -1 7 -1.2
v -0.9 7 -1.2
v 0.9 7 -1.2
v 1 7 -1.2
v -0.9 7 -1.3
v -0.8 7 -1.3
v 0.8 7 -1.3
v 0.9 7 -1.3
v -0.8 7 -1.4
v 0.8 7 -1.4
v -0.9 7.1 0.3
v -0.8 7.1 0.3
v 0.8 7.1 0.3
v 0.9 7.1 0.3
v -0.3 7.1 -0.0999998
v 0.3 7.1 -0.0999998
v -0.8 7.1 -0.5
v -0.3 7.1 -0.5
v 0.3 7.1 -0.5
v 0.8 7.1 -0.5
v -0.9 7.1 -1
v -0.8 7.1 -1
v 0.8 7.1 -1
v 0.9 7.1 -1
v -0.8 7.1 -1.1
v 0.8 7.1 -1.1
v -0.8 7.9 0.4
v -0.7 7.9 0.4
v -0.4 7.9 0.4
v -0.3 7.9 0.4
v 0.3 7.9 0.4
v 0.4 7.9 0.4
v 0.7 7.9 0.4
v 0.8 7.9 0.4
v -0.7 7.9 -0.4
v -0.4 7.9 -0.4
v -0.8 7.9 -0.5
v -0.3 7.9 -0.5
v 0.3 7.9 -0.5
v 0.4 7.9 -0.5
v 0.7 7.9 -0.5
v 0.8 7.9 -0.5
v -0.7 8 0.4
v -0.4 8 0.4
v 0.4 8 0.4
v 0.7 8 0.4
v -0.7 8 -0.4
v -0.4 8 -0.4
v 0.4 8 -0.5
v 0.7 8 -0.5

# faces
f 3/2/1 2/2/1 1/2/1
f 4/2/1 2/2/1 3/2/1
f 5/2/1 2/2/1 4/2/1
f 6/2/1 2/2/1 5/2/1
f 7/2/1 5/2/1 4/2/1
f 8/2/1 5/2/1 7/2/1
f 12/2/1 10/2/1 9/2/1
f 13/2/1 10/2/1 12/2/1
f 14/2/1 12/2/1 11/2/1
f 15/2/1 12/2/1 14/2/1
f 19/2/1 10/2/1 13/2/1
f 20/2/1 10/2/1 19/2/1
f 21/2/1 17/2/1 16/2/1
f 22/2/1 17/2/1 21/2/1
f 24/2/1 19/2/1 18/2/1
f 25/2/1 19/2/1 24/2/1
f 26/2/1 23/2/1 22/2/1
f 27/2/1 23/2/1 26/2/1
f 31/2/1 29/2/1 28/2/1
f 32/2/1 29/2/1 31/2/1
f 33/2/1 31/2/1 30/2/1
f 34/2/1 31/2/1 33/2/1
f 37/2/1 36/2/1 35/2/1
f 38/2/1 36/2/1 37/2/1
f 41/2/1 40/2/1 39/2/1
f 42/2/1 40/2/1 41/2/1
f 49/2/1 44/2/1 43/2/1
f 50/2/1 44/2/1 49/2/1
f 51/2/1 46/2/1 45/2/1
f 53/2/1 48/2/1 47/2/1
f 54/2/1 48/2/1 53/2/1
f 55/2/1 52/2/1 51/2/1
f 55/2/1 51/2/1 45/2/1
f 56/2/1 52/2/1 55/2/1
f 59/3/1 58/3/1 57/3/1
f 60/3/1 58/3/1 59/3/1
f 63/2/1 62/2/1 61/2/1
f 64/2/1 62/2/1 63/2/1
f 67/3/1 66/3/1 65/3/1
f 68/3/1 66/3/1 67/3/1
f 71/3/1 70/3/1 69/3/1
f 72/3/1 70/3/1 71/3/1
f 75/3/1 74/3/1 73/3/1
f 76/3/1 74/3/1 75/3/1
f 79/3/1 78/3/1 77/3/1
f 80/3/1 78/3/1 79/3/1
f 83/5/1 82/5/1 81/5/1
f 84/5/1 82/5/1 83/5/1
f 87/5/1 86/5/1 85/5/1
f 88/5/1 86/5/1 87/5/1
f 91/5/1 90/5/1 89/5/1
f 92/5/1 90/5/1 91/5/1
f 95/5/1 94/5/1 93/5/1
f 96/5/1 94/5/1 95/5/1
f 99/5/1 98/5/1 97/5/1
f 100/5/1 98/5/1 99/5/1
f 103/2/1 102/2/1 101/2/1
f 105/2/1 103/2/1 101/2/1
f 105/2/1 104/2/1 103/2/1
f 106/2/1 104/2/1 105/2/1
f 109/2/1 108/2/1 107/2/1
f 110/2/1 108/2/1 109/2/1
f 111/2/2 112/2/2 113/2/2
f 113/2/2 112/2/2 114/2/2
f 115/3/2 116/3/2 117/3/2
f 117/3/2 116/3/2 118/3/2
f 119/3/2 120/3/2 121/3/2
f 121/3/2 120/3/2 122/3/2
f 123/2/2 124/2/2 125/2/2
f 123/2/2 125/2/2 127/2/2
f 125/2/2 126/2/2 127/2/2
f 127/2/2 126/2/2 128/2/2
f 129/3/2 130/3/2 131/3/2
f 131/3/2 130/3/2 132/3/2
f 133/3/2 134/3/2 135/3/2
f 135/3/2 134/3/2 136/3/2
f 137/3/2 138/3/2 139/3/2
f 139/3/2 138/3/2 140/3/2
f 141/5/2 142/5/2 143/5/2
f 143/5/2 142/5/2 144/5/2
f 145/5/2 146/5/2 147/5/2
f 147/5/2 146/5/2 148/5/2
f 149/5/2 150/5/2 151/5/2
f 151/5/2 150/5/2 152/5/2
f 153/5/2 154/5/2 155/5/2
f 155/5/2 154/5/2 156/5/2
f 157/5/2 158/5/2 159/5/2
f 159/5/2 158/5/2 160/5/2
f 161/2/2 162/2/2 163/2/2
f 163/2/2 162/2/2 164/2/2
f 165/2/2 166/2/2 168/2/2
f 168/2/2 166/2/2 169/2/2
f 167/2/2 168/2/2 170/2/2
f 170/2/2 168/2/2 171/2/2
f 172/2/2 173/2/2 174/2/2
f 174/2/2 173/2/2 175/2/2
f 176/2/2 177/2/2 178/2/2
f 178/2/2 177/2/2 179/2/2
f 180/2/2 181/2/2 186/2/2
f 186/2/2 181/2/2 187/2/2
f 182/2/2 183/2/2 188/2/2
f 184/2/2 185/2/2 190/2/2
f 190/2/2 185/2/2 191/2/2
f 188/2/2 189/2/2 192/2/2
f 182/2/2 188/2/2 192/2/2
f 192/2/2 189/2/2 193/2/2
f 194/2/2 195/2/2 197/2/2
f 197/2/2 195/2/2 198/2/2
f 196/2/2 197/2/2 199/2/2
f 199/2/2 197/2/2 200/2/2
f 198/2/2 195/2/2 204/2/2
f 204/2/2 195/2/2 205/2/2
f 201/2/2 202/2/2 206/2/2
f 206/2/2 202/2/2 207/2/2
f 203/2/2 204/2/2 209/2/2
f 209/2/2 204/2/2 210/2/2
f 207/2/2 208/2/2 211/2/2
f 211/2/2 208/2/2 212/2/2
f 213/2/2 214/2/2 215/2/2
f 215/2/2 214/2/2 216/2/2
f 216/2/2 214/2/2 217/2/2
f 217/2/2 214/2/2 218/2/2
f 216/2/2 217/2/2 219/2/2
f 219/2/2 217/2/2 220/2/2
f 224/3/3 222/3/3 221/3/3
f 225/3/3 222/3/3 224/3/3
f 228/3/3 224/3/3 223/3/3
f 228/3/3 226/3/3 225/3/3
f 228/3/3 225/3/3 224/3/3
f 229/3/3 226/3/3 228/3/3
f 230/3/3 226/3/3 229/3/3
f 231/3/3 226/3/3 230/3/3
f 233/3/3 228/3/3 227/3/3
f 233/3/3 229/3/3 228/3/3
f 234/6/3 230/6/3 229/6/3
f 234/3/3 229/3/3 233/3/3
f 235/3/3 232/3/3 231/3/3
f 235/6/3 230/6/3 234/6/3
f 235/3/3 231/3/3 230/3/3
f 236/3/3 233/3/3 227/3/3
f 237/3/3 233/3/3 236/3/3
f 238/6/3 234/6/3 233/6/3
f 238/3/3 233/3/3 237/3/3
f 239/3/3 235/3/3 234/3/3
f 239/6/3 234/6/3 238/6/3
f 240/3/3 232/3/3 235/3/3
f 240/3/3 235/3/3 239/3/3
f 241/3/3 232/3/3 240/3/3
f 242/3/3 239/3/3 238/3/3
f 242/3/3 240/3/3 239/3/3
f 242/3/3 238/3/3 237/3/3
f 243/3/3 240/3/3 242/3/3
f 244/3/3 240/3/3 243/3/3
f 245/3/3 240/3/3 244/3/3
f 246/3/3 244/3/3 243/3/3
f 247/3/3 244/3/3 246/3/3
f 251/5/3 249/5/3 248/5/3
f 252/5/3 249/5/3 251/5/3
f 255/5/3 252/5/3 251/5/3
f 255/5/3 253/5/3 252/5/3
f 255/5/3 251/5/3 250/5/3
f 256/5/3 253/5/3 255/5/3
f 257/5/3 253/5/3 256/5/3
f 258/5/3 253/5/3 257/5/3
f 260/5/3 255/5/3 254/5/3
f 260/5/3 256/5/3 255/5/3
f 261/3/3 257/3/3 256/3/3
f 261/5/3 256/5/3 260/5/3
f 262/5/3 258/5/3 257/5/3
f 262/3/3 257/3/3 261/3/3
f 262/5/3 259/5/3 258/5/3
f 263/5/3 260/5/3 254/5/3
f 264/5/3 260/5/3 263/5/3
f 265/3/3 261/3/3 260/3/3
f 265/5/3 260/5/3 264/5/3
f 266/5/3 262/5/3 261/5/3
f 266/3/3 261/3/3 265/3/3
f 267/5/3 259/5/3 262/5/3
f 267/5/3 262/5/3 266/5/3
f 268/5/3 259/5/3 267/5/3
f 269/5/3 266/5/3 265/5/3
f 269/5/3 267/5/3 266/5/3
f 269/5/3 265/5/3 264/5/3
f 270/5/3 267/5/3 269/5/3
f 271/5/3 267/5/3 270/5/3
f 272/5/3 267/5/3 271/5/3
f 273/5/3 271/5/3 270/5/3
f 274/5/3 271/5/3 273/5/3
f 278/2/3 276/2/3 275/2/3
f 279/2/3 276/2/3 278/2/3
f 281/2/3 278/2/3 277/2/3
f 281/2/3 280/2/3 279/2/3
f 281/2/3 279/2/3 278/2/3
f 282/2/3 280/2/3 281/2/3
f 283/2/3 281/2/3 277/2/3
f 284/2/3 281/2/3 283/2/3
f 285/2/3 280/2/3 282/2/3
f 286/2/3 280/2/3 285/2/3
f 287/2/3 283/2/3 277/2/3
f 288/2/3 283/2/3 287/2/3
f 289/2/3 280/2/3 286/2/3
f 290/2/3 280/2/3 289/2/3
f 291/2/3 287/2/3 277/2/3
f 292/2/3 287/2/3 291/2/3
f 293/2/3 287/2/3 292/2/3
f 296/2/3 280/2/3 290/2/3
f 297/2/3 291/2/3 277/2/3
f 298/7/3 292/7/3 291/7/3
f 298/2/3 291/2/3 297/2/3
f 299/2/3 294/2/3 293/2/3
f 299/7/3 292/7/3 298/7/3
f 299/2/3 293/2/3 292/2/3
f 300/2/3 294/2/3 299/2/3
f 303/2/3 296/2/3 295/2/3
f 304/7/3 298/7/3 297/7/3
f 304/2/3 297/2/3 277/2/3
f 305/2/3 301/2/3 300/2/3
f 305/7/3 298/7/3 304/7/3
f 305/2/3 299/2/3 298/2/3
f 305/2/3 300/2/3 299/2/3
f 306/2/3 301/2/3 305/2/3
f 307/2/3 301/2/3 306/2/3
f 308/2/3 303/2/3 302/2/3
f 309/2/3 304/2/3 277/2/3
f 309/2/3 305/2/3 304/2/3
f 310/7/3 306/7/3 305/7/3
f 310/2/3 305/2/3 309/2/3
f 311/2/3 307/2/3 306/2/3
f 311/7/3 306/7/3 310/7/3
f 311/2/3 308/2/3 307/2/3
f 312/2/3 308/2/3 311/2/3
f 313/2/3 303/2/3 308/2/3
f 313/2/3 308/2/3 312/2/3
f 314/7/3 310/7/3 309/7/3
f 314/2/3 309/2/3 277/2/3
f 315/2/3 312/2/3 311/2/3
f 315/7/3 310/7/3 314/7/3
f 315/2/3 311/2/3 310/2/3
f 316/2/3 312/2/3 315/2/3
f 317/2/3 312/2/3 316/2/3
f 318/2/3 312/2/3 317/2/3
f 319/2/3 303/2/3 313/2/3
f 320/2/3 296/2/3 303/2/3
f 320/2/3 303/2/3 319/2/3
f 321/2/3 315/2/3 314/2/3
f 321/7/3 316/7/3 315/7/3
f 322/2/3 317/2/3 316/2/3
f 322/7/3 316/7/3 321/7/3
f 323/2/3 317/2/3 322/2/3
f 324/2/3 317/2/3 323/2/3
f 325/2/3 296/2/3 320/2/3
f 326/2/3 280/2/3 296/2/3
f 326/2/3 296/2/3 325/2/3
f 327/2/3 322/2/3 321/2/3
f 327/2/3 323/2/3 322/2/3
f 330/2/3 280/2/3 326/2/3
f 331/2/3 328/2/3 327/2/3
f 334/2/3 330/2/3 329/2/3
f 335/2/3 332/2/3 331/2/3
f 336/2/3 334/2/3 333/2/3
f 337/2/3 335/2/3 331/2/3
f 337/2/3 336/2/3 335/2/3
f 337/2/3 314/2/3 277/2/3
f 337/2/3 321/2/3 314/2/3
f 337/2/3 327/2/3 321/2/3
f 337/2/3 331/2/3 327/2/3
f 338/2/3 336/2/3 337/2/3
f 339/2/3 334/2/3 336/2/3
f 339/2/3 336/2/3 338/2/3
f 339/2/3 330/2/3 334/2/3
f 339/2/3 280/2/3 330/2/3
f 340/2/3 280/2/3 339/2/3
f 341/2/3 339/2/3 338/2/3
f 342/2/3 339/2/3 341/2/3
f 346/2/3 344/2/3 343/2/3
f 347/2/3 344/2/3 346/2/3
f 348/2/3 344/2/3 347/2/3
f 351/2/3 346/2/3 345/2/3
f 352/2/3 346/2/3 351/2/3
f 353/2/3 348/2/3 347/2/3
f 353/2/3 349/2/3 348/2/3
f 354/2/3 349/2/3 353/2/3
f 355/2/3 351/2/3 350/2/3
f 356/2/3 351/2/3 355/2/3
f 359/2/3 349/2/3 354/2/3
f 360/2/3 357/2/3 356/2/3
f 361/2/3 357/2/3 360/2/3
f 362/2/3 359/2/3 358/2/3
f 363/2/3 349/2/3 359/2/3
f 363/2/3 359/2/3 362/2/3
f 364/2/3 349/2/3 363/2/3
f 365/2/3 362/2/3 361/2/3
f 365/2/3 363/2/3 362/2/3
f 366/2/3 363/2/3 365/2/3
f 369/2/3 368/2/3 367/2/3
f 370/2/3 368/2/3 369/2/3
f 372/1/3 370/1/3 369/1/3
f 373/2/3 371/2/3 370/2/3
f 373/1/3 370/1/3 372/1/3
f 374/2/3 371/2/3 373/2/3
f 375/2/3 373/2/3 372/2/3
f 376/2/3 373/2/3 375/2/3
f 379/2/3 378/2/3 377/2/3
f 380/2/3 378/2/3 379/2/3
f 382/1/3 380/1/3 379/1/3
f 383/2/3 381/2/3 380/2/3
f 383/1/3 380/1/3 382/1/3
f 384/2/3 381/2/3 383/2/3
f 385/2/3 383/2/3 382/2/3
f 386/2/3 383/2/3 385/2/3
f 389/2/3 388/2/3 387/2/3
f 390/2/3 388/2/3 389/2/3
f 392/2/3 391/2/3 390/2/3
f 393/2/3 391/2/3 392/2/3
f 397/2/3 395/2/3 394/2/3
f 398/2/3 395/2/3 397/2/3
f 399/2/3 397/2/3 396/2/3
f 400/2/3 397/2/3 399/2/3
f 403/2/3 402/2/3 401/2/3
f 404/2/3 402/2/3 403/2/3
f 405/2/4 406/2/4 407/2/4
f 407/2/4 406/2/4 408/2/4
f 409/2/4 410/2/4 411/2/4
f 411/2/4 410/2/4 412/2/4
f 413/2/4 414/2/4 415/2/4
f 413/2/4 415/2/4 417/2/4
f 415/2/4 416/2/4 417/2/4
f 417/2/4 416/2/4 418/2/4
f 413/2/4 417/2/4 419/2/4
f 419/2/4 417/2/4 420/2/4
f 421/2/4 422/2/4 423/2/4
f 423/2/4 422/2/4 424/2/4
f 425/2/4 426/2/4 427/2/4
f 427/2/4 426/2/4 428/2/4
f 429/2/4 430/2/4 431/2/4
f 431/2/4 430/2/4 432/2/4
f 433/2/4 434/2/4 435/2/4
f 435/2/4 434/2/4 436/2/4
f 437/2/4 438/2/4 439/2/4
f 439/2/4 438/2/4 440/2/4
f 441/2/4 442/2/4 443/2/4
f 443/2/4 442/2/4 444/2/4
f 444/2/4 445/2/4 448/2/4
f 448/2/4 445/2/4 449/2/4
f 446/2/4 447/2/4 450/2/4
f 450/2/4 447/2/4 451/2/4
f 452/2/4 453/2/4 455/2/4
f 455/2/4 453/2/4 456/2/4
f 454/2/4 455/2/4 457/2/4
f 457/2/4 455/2/4 458/2/4
f 459/2/4 460/2/4 461/2/4
f 461/2/4 460/2/4 462/2/4
f 462/2/4 460/2/4 463/2/4
f 459/2/4 461/2/4 465/2/4
f 463/2/4 464/2/4 466/2/4
f 462/2/4 463/2/4 466/2/4
f 466/2/4 464/2/4 467/2/4
f 467/2/4 464/2/4 468/2/4
f 459/2/4 465/2/4 469/2/4
f 465/2/4 466/2/4 469/2/4
f 466/2/4 467/2/4 469/2/4
f 469/2/4 467/2/4 470/2/4
f 471/2/4 472/2/4 473/2/4
f 473/2/4 472/2/4 474/2/4
f 477/2/5 476/2/5 475/2/5
f 478/2/5 476/2/5 477/2/5
f 482/2/5 480/2/5 479/2/5
f 483/2/5 480/2/5 482/2/5
f 485/2/5 482/2/5 481/2/5
f 486/2/5 484/2/5 483/2/5
f 487/2/5 485/2/5 481/2/5
f 487/2/5 486/2/5 485/2/5
f 488/2/5 484/2/5 486/2/5
f 488/2/5 486/2/5 487/2/5
f 494/2/5 490/2/5 489/2/5
f 495/2/5 490/2/5 494/2/5
f 496/2/5 492/2/5 491/2/5
f 497/2/5 492/2/5 496/2/5
f 499/2/5 494/2/5 493/2/5
f 500/2/5 494/2/5 499/2/5
f 501/2/5 498/2/5 497/2/5
f 502/2/5 498/2/5 501/2/5
f 505/2/5 504/2/5 503/2/5
f 506/2/5 504/2/5 505/2/5
f 511/3/5 508/3/5 507/3/5
f 512/3/5 508/3/5 511/3/5
f 513/5/5 510/5/5 509/5/5
f 514/5/5 510/5/5 513/5/5
f 523/3/5 516/3/5 515/3/5
f 524/3/5 516/3/5 523/3/5
f 525/3/5 518/3/5 517/3/5
f 526/3/5 518/3/5 525/3/5
f 527/5/5 520/5/5 519/5/5
f 528/5/5 520/5/5 527/5/5
f 529/5/5 522/5/5 521/5/5
f 530/5/5 522/5/5 529/5/5
f 539/3/5 532/3/5 531/3/5
f 540/3/5 532/3/5 539/3/5
f 541/3/5 534/3/5 533/3/5
f 542/3/5 534/3/5 541/3/5
f 543/5/5 536/5/5 535/5/5
f 544/5/5 536/5/5 543/5/5
f 545/5/5 538/5/5 537/5/5
f 546/5/5 538/5/5 545/5/5
f 547/3/6 548/3/6 555/3/6
f 555/3/6 548/3/6 556/3/6
f 549/3/6 550/3/6 557/3/6
f 557/3/6 550/3/6 558/3/6
f 551/5/6 552/5/6 559/5/6
f 559/5/6 552/5/6 560/5/6
f 553/5/6 554/5/6 561/5/6
f 561/5/6 554/5/6 562/5/6
f 563/3/6 564/3/6 571/3/6
f 571/3/6 564/3/6 572/3/6
f 565/3/6 566/3/6 573/3/6
f 573/3/6 566/3/6 574/3/6
f 567/5/6 568/5/6 575/5/6
f 575/5/6 568/5/6 576/5/6
f 569/5/6 570/5/6 577/5/6
f 577/5/6 570/5/6 578/5/6
f 579/2/6 580/2/6 581/2/6
f 581/2/6 580/2/6 582/2/6
f 583/3/6 584/3/6 589/3/6
f 589/3/6 584/3/6 590/3/6
f 585/5/6 586/5/6 591/5/6
f 591/5/6 586/5/6 592/5/6
f 587/2/6 588/2/6 595/2/6
f 595/2/6 588/2/6 596/2/6
f 593/2/6 594/2/6 597/2/6
f 597/2/6 594/2/6 598/2/6
f 599/2/6 600/2/6 603/2/6
f 603/2/6 600/2/6 604/2/6
f 601/2/6 602/2/6 607/2/6
f 607/2/6 602/2/6 608/2/6
f 605/2/6 606/2/6 609/2/6
f 609/2/6 606/2/6 610/2/6
f 611/2/6 612/2/6 615/2/6
f 615/2/6 612/2/6 616/2/6
f 613/2/6 614/2/6 619/2/6
f 619/2/6 614/2/6 620/2/6
f 616/2/6 617/2/6 621/2/6
f 621/2/6 617/2/6 622/2/6
f 618/2/6 619/2/6 623/2/6
f 623/2/6 619/2/6 624/2/6
f 625/2/6 626/2/6 627/2/6
f 627/2/6 626/2/6 628/2/6
f 628/2/6 626/2/6 629/2/6
f 629/2/6 626/2/6 630/2/6
f 630/2/6 626/2/6 631/2/6
f 631/2/6 626/2/6 632/2/6
f 632/2/6 626/2/6 633/2/6
f 633/2/6 626/2/6 634/2/6
f 625/2/6 627/2/6 636/2/6
f 636/2/6 627/2/6 637/2/6
f 634/2/6 626/2/6 638/2/6
f 638/2/6 626/2/6 639/2/6
f 630/2/6 631/2/6 641/2/6
f 641/2/6 631/2/6 642/2/6
f 635/2/6 636/2/6 643/2/6
f 639/2/6 640/2/6 646/2/6
f 643/2/6 644/2/6 647/2/6
f 645/2/6 646/2/6 648/2/6
f 635/2/6 643/2/6 649/2/6
f 647/2/6 648/2/6 649/2/6
f 643/2/6 647/2/6 649/2/6
f 649/2/6 648/2/6 650/2/6
f 648/2/6 646/2/6 651/2/6
f 650/2/6 648/2/6 651/2/6
f 646/2/6 640/2/6 651/2/6
f 651/2/6 640/2/6 652/2/6
f 650/2/6 651/2/6 653/2/6
f 653/2/6 651/2/6 654/2/6
f 654/2/6 651/2/6 655/2/6
f 655/2/6 651/2/6 656/2/6
f 654/2/6 655/2/6 657/2/6
f 657/2/6 655/2/6 658/2/6
f 659/2/6 660/2/6 665/2/6
f 663/2/6 664/2/6 666/2/6
f 666/2/6 664/2/6 667/2/6
f 661/2/6 662/2/6 668/2/6
f 659/2/6 665/2/6 669/2/6
f 667/2/6 668/2/6 669/2/6
f 666/2/6 667/2/6 669/2/6
f 665/2/6 666/2/6 669/2/6
f 669/2/6 668/2/6 670/2/6
f 668/2/6 662/2/6 671/2/6
f 670/2/6 668/2/6 671/2/6
f 671/2/6 662/2/6 672/2/6
f 670/2/6 671/2/6 673/2/6
f 673/2/6 671/2/6 674/2/6
f 675/2/6 676/2/6 683/2/6
f 677/2/6 678/2/6 684/2/6
f 675/2/6 683/2/6 685/2/6
f 683/2/6 684/2/6 685/2/6
f 684/2/6 678/2/6 686/2/6
f 685/2/6 684/2/6 686/2/6
f 679/2/6 680/2/6 687/2/6
f 687/2/6 680/2/6 688/2/6
f 681/2/6 682/2/6 689/2/6
f 689/2/6 682/2/6 690/2/6
f 691/2/6 692/2/6 695/2/6
f 695/2/6 692/2/6 696/2/6
f 693/2/6 694/2/6 697/2/6
f 697/2/6 694/2/6 698/2/6
