# MagicaVoxel @ Ephtracy

# group
o 

# material
mtllib mlgs.mtl
usemtl palette

# normals
vn -1 0 0
vn 1 0 0
vn 0 0 1
vn 0 0 -1
vn 0 -1 0
vn 0 1 0

# texcoords
vt 0.00195312 0.5
vt 0.00585938 0.5
vt 0.00976562 0.5
vt 0.0175781 0.5
vt 0.0253906 0.5
vt 0.982422 0.5

# verts
v -0.7 1.7 -0.1
v -0.7 1.7 -0.4
v -0.7 1.9 -0.1
v -0.7 1.9 -0.4
v -0.5 1.6 -0.1
v -0.5 1.6 -0.4
v -0.5 1.7 -0.1
v -0.5 1.7 -0.4
v -0.3 1.8 -0.2
v -0.3 1.8 -0.3
v -0.3 5.3 -0.2
v -0.3 5.3 -0.3
v -0.2 5.3 -0.2
v -0.2 5.3 -0.3
v -0.2 5.6 -0.2
v -0.2 5.6 -0.3
v -0.1 0 -0.2
v -0.1 0 -0.3
v -0.1 1.6 -0.2
v -0.1 1.6 -0.3
v -0.1 5.6 -0.2
v -0.1 5.6 -0.3
v -0.1 5.9 -0.2
v -0.1 5.9 -0.3
v 0.6 1.8 -0.1
v 0.6 1.8 -0.4
v 0.6 1.9 -0.1
v 0.6 1.9 -0.4
v -0.6 1.8 -0.1
v -0.6 1.8 -0.4
v -0.6 1.9 -0.1
v -0.6 1.9 -0.4
v 0.0999998 0 -0.2
v 0.0999998 0 -0.3
v 0.0999998 1.6 -0.2
v 0.0999998 1.6 -0.3
v 0.0999998 5.6 -0.2
v 0.0999998 5.6 -0.3
v 0.0999998 5.9 -0.2
v 0.0999998 5.9 -0.3
v 0.2 5.3 -0.2
v 0.2 5.3 -0.3
v 0.2 5.6 -0.2
v 0.2 5.6 -0.3
v 0.3 1.8 -0.2
v 0.3 1.8 -0.3
v 0.3 5.3 -0.2
v 0.3 5.3 -0.3
v 0.5 1.6 -0.1
v 0.5 1.6 -0.4
v 0.5 1.7 -0.1
v 0.5 1.7 -0.4
v 0.7 1.7 -0.1
v 0.7 1.7 -0.4
v 0.7 1.9 -0.1
v 0.7 1.9 -0.4
v -0.7 1.7 -0.1
v -0.7 1.9 -0.1
v -0.6 1.8 -0.1
v -0.6 1.9 -0.1
v -0.5 1.6 -0.1
v -0.5 1.7 -0.1
v 0.5 1.6 -0.1
v 0.5 1.7 -0.1
v 0.6 1.8 -0.1
v 0.6 1.9 -0.1
v 0.7 1.7 -0.1
v 0.7 1.9 -0.1
v -0.3 1.8 -0.2
v -0.3 5.3 -0.2
v -0.2 1.8 -0.2
v -0.2 2 -0.2
v -0.2 5.2 -0.2
v -0.2 5.3 -0.2
v -0.2 5.6 -0.2
v -0.1 0 -0.2
v -0.1 1.6 -0.2
v -0.1 2 -0.2
v -0.1 5.1 -0.2
v -0.1 5.2 -0.2
v -0.1 5.6 -0.2
v -0.1 5.9 -0.2
v -1.78814e-07 2 -0.2
v -1.78814e-07 4.3 -0.2
v -1.78814e-07 5.6 -0.2
v -1.78814e-07 5.9 -0.2
v 0.0999998 0 -0.2
v 0.0999998 1.6 -0.2
v 0.0999998 2 -0.2
v 0.0999998 4.3 -0.2
v 0.0999998 5.1 -0.2
v 0.0999998 5.3 -0.2
v 0.0999998 5.6 -0.2
v 0.0999998 5.9 -0.2
v 0.2 1.8 -0.2
v 0.2 2 -0.2
v 0.2 5.3 -0.2
v 0.2 5.6 -0.2
v 0.3 1.8 -0.2
v 0.3 5.3 -0.2
v -0.3 1.8 -0.3
v -0.3 5.3 -0.3
v -0.2 1.8 -0.3
v -0.2 2 -0.3
v -0.2 5.2 -0.3
v -0.2 5.3 -0.3
v -0.2 5.6 -0.3
v -0.1 0 -0.3
v -0.1 1.6 -0.3
v -0.1 2 -0.3
v -0.1 5.1 -0.3
v -0.1 5.2 -0.3
v -0.1 5.6 -0.3
v -0.1 5.9 -0.3
v -1.78814e-07 2 -0.3
v -1.78814e-07 4.3 -0.3
v -1.78814e-07 5.6 -0.3
v -1.78814e-07 5.9 -0.3
v 0.0999998 0 -0.3
v 0.0999998 1.6 -0.3
v 0.0999998 2 -0.3
v 0.0999998 4.3 -0.3
v 0.0999998 5.1 -0.3
v 0.0999998 5.3 -0.3
v 0.0999998 5.6 -0.3
v 0.0999998 5.9 -0.3
v 0.2 1.8 -0.3
v 0.2 2 -0.3
v 0.2 5.3 -0.3
v 0.2 5.6 -0.3
v 0.3 1.8 -0.3
v 0.3 5.3 -0.3
v -0.7 1.7 -0.4
v -0.7 1.9 -0.4
v -0.6 1.8 -0.4
v -0.6 1.9 -0.4
v -0.5 1.6 -0.4
v -0.5 1.7 -0.4
v 0.5 1.6 -0.4
v 0.5 1.7 -0.4
v 0.6 1.8 -0.4
v 0.6 1.9 -0.4
v 0.7 1.7 -0.4
v 0.7 1.9 -0.4
v -0.1 0 -0.2
v 0.0999998 0 -0.2
v -0.1 0 -0.3
v 0.0999998 0 -0.3
v -0.5 1.6 -0.1
v 0.5 1.6 -0.1
v -0.1 1.6 -0.2
v 0.0999998 1.6 -0.2
v -0.1 1.6 -0.3
v 0.0999998 1.6 -0.3
v -0.5 1.6 -0.4
v 0.5 1.6 -0.4
v -0.7 1.7 -0.1
v -0.5 1.7 -0.1
v 0.5 1.7 -0.1
v 0.7 1.7 -0.1
v -0.7 1.7 -0.4
v -0.5 1.7 -0.4
v 0.5 1.7 -0.4
v 0.7 1.7 -0.4
v -0.6 1.8 -0.1
v 0.6 1.8 -0.1
v -0.3 1.8 -0.2
v -0.2 1.8 -0.2
v 0.2 1.8 -0.2
v 0.3 1.8 -0.2
v -0.3 1.8 -0.3
v -0.2 1.8 -0.3
v 0.2 1.8 -0.3
v 0.3 1.8 -0.3
v -0.6 1.8 -0.4
v 0.6 1.8 -0.4
v -0.7 1.9 -0.1
v -0.6 1.9 -0.1
v 0.6 1.9 -0.1
v 0.7 1.9 -0.1
v -0.7 1.9 -0.4
v -0.6 1.9 -0.4
v 0.6 1.9 -0.4
v 0.7 1.9 -0.4
v -0.3 5.3 -0.2
v -0.2 5.3 -0.2
v 0.2 5.3 -0.2
v 0.3 5.3 -0.2
v -0.3 5.3 -0.3
v -0.2 5.3 -0.3
v 0.2 5.3 -0.3
v 0.3 5.3 -0.3
v -0.2 5.6 -0.2
v -0.1 5.6 -0.2
v 0.0999998 5.6 -0.2
v 0.2 5.6 -0.2
v -0.2 5.6 -0.3
v -0.1 5.6 -0.3
v 0.0999998 5.6 -0.3
v 0.2 5.6 -0.3
v -0.1 5.9 -0.2
v -1.78814e-07 5.9 -0.2
v 0.0999998 5.9 -0.2
v -0.1 5.9 -0.3
v -1.78814e-07 5.9 -0.3
v 0.0999998 5.9 -0.3

# faces
f 3/6/1 2/6/1 1/6/1
f 4/6/1 2/6/1 3/6/1
f 7/6/1 6/6/1 5/6/1
f 8/6/1 6/6/1 7/6/1
f 11/1/1 10/1/1 9/1/1
f 12/1/1 10/1/1 11/1/1
f 15/1/1 14/1/1 13/1/1
f 16/1/1 14/1/1 15/1/1
f 19/6/1 18/6/1 17/6/1
f 20/6/1 18/6/1 19/6/1
f 23/1/1 22/1/1 21/1/1
f 24/1/1 22/1/1 23/1/1
f 27/6/1 26/6/1 25/6/1
f 28/6/1 26/6/1 27/6/1
f 29/6/2 30/6/2 31/6/2
f 31/6/2 30/6/2 32/6/2
f 33/6/2 34/6/2 35/6/2
f 35/6/2 34/6/2 36/6/2
f 37/2/2 38/2/2 39/2/2
f 39/2/2 38/2/2 40/2/2
f 41/4/2 42/4/2 43/4/2
f 43/4/2 42/4/2 44/4/2
f 45/4/2 46/4/2 47/4/2
f 47/4/2 46/4/2 48/4/2
f 49/6/2 50/6/2 51/6/2
f 51/6/2 50/6/2 52/6/2
f 53/6/2 54/6/2 55/6/2
f 55/6/2 54/6/2 56/6/2
f 59/6/3 58/6/3 57/6/3
f 60/6/3 58/6/3 59/6/3
f 62/6/3 59/6/3 57/6/3
f 63/6/3 62/6/3 61/6/3
f 64/6/3 59/6/3 62/6/3
f 64/6/3 62/6/3 63/6/3
f 65/6/3 59/6/3 64/6/3
f 67/6/3 65/6/3 64/6/3
f 67/6/3 66/6/3 65/6/3
f 68/6/3 66/6/3 67/6/3
f 71/1/3 70/1/3 69/1/3
f 72/1/3 70/1/3 71/1/3
f 73/1/3 70/1/3 72/1/3
f 74/1/3 70/1/3 73/1/3
f 78/3/3 72/3/3 71/3/3
f 78/2/3 73/2/3 72/2/3
f 79/2/3 73/2/3 78/2/3
f 80/1/3 75/1/3 74/1/3
f 80/2/3 73/2/3 79/2/3
f 80/1/3 74/1/3 73/1/3
f 81/1/3 75/1/3 80/1/3
f 83/3/3 79/3/3 78/3/3
f 83/3/3 78/3/3 71/3/3
f 84/3/3 79/3/3 83/3/3
f 85/1/3 82/1/3 81/1/3
f 85/2/3 81/2/3 80/2/3
f 85/2/3 80/2/3 79/2/3
f 86/1/3 82/1/3 85/1/3
f 87/6/3 77/6/3 76/6/3
f 88/6/3 77/6/3 87/6/3
f 89/5/3 84/5/3 83/5/3
f 89/3/3 83/3/3 71/3/3
f 90/3/3 79/3/3 84/3/3
f 90/5/3 84/5/3 89/5/3
f 91/2/3 85/2/3 79/2/3
f 91/3/3 79/3/3 90/3/3
f 91/2/3 86/2/3 85/2/3
f 92/2/3 86/2/3 91/2/3
f 93/2/3 86/2/3 92/2/3
f 94/2/3 86/2/3 93/2/3
f 95/3/3 89/3/3 71/3/3
f 96/2/3 90/2/3 89/2/3
f 96/3/3 89/3/3 95/3/3
f 96/2/3 91/2/3 90/2/3
f 96/2/3 92/2/3 91/2/3
f 97/4/3 93/4/3 92/4/3
f 97/2/3 92/2/3 96/2/3
f 98/4/3 93/4/3 97/4/3
f 99/4/3 96/4/3 95/4/3
f 99/4/3 97/4/3 96/4/3
f 100/4/3 97/4/3 99/4/3
f 101/1/4 102/1/4 103/1/4
f 103/1/4 102/1/4 104/1/4
f 104/1/4 102/1/4 105/1/4
f 105/1/4 102/1/4 106/1/4
f 103/3/4 104/3/4 110/3/4
f 104/2/4 105/2/4 110/2/4
f 110/2/4 105/2/4 111/2/4
f 106/1/4 107/1/4 112/1/4
f 111/2/4 105/2/4 112/2/4
f 105/1/4 106/1/4 112/1/4
f 112/1/4 107/1/4 113/1/4
f 110/3/4 111/3/4 115/3/4
f 103/3/4 110/3/4 115/3/4
f 115/3/4 111/3/4 116/3/4
f 113/1/4 114/1/4 117/1/4
f 112/2/4 113/2/4 117/2/4
f 111/2/4 112/2/4 117/2/4
f 117/1/4 114/1/4 118/1/4
f 108/6/4 109/6/4 119/6/4
f 119/6/4 109/6/4 120/6/4
f 115/5/4 116/5/4 121/5/4
f 103/3/4 115/3/4 121/3/4
f 116/3/4 111/3/4 122/3/4
f 121/5/4 116/5/4 122/5/4
f 111/2/4 117/2/4 123/2/4
f 122/3/4 111/3/4 123/3/4
f 117/2/4 118/2/4 123/2/4
f 123/2/4 118/2/4 124/2/4
f 124/2/4 118/2/4 125/2/4
f 125/2/4 118/2/4 126/2/4
f 103/3/4 121/3/4 127/3/4
f 121/2/4 122/2/4 128/2/4
f 127/3/4 121/3/4 128/3/4
f 122/2/4 123/2/4 128/2/4
f 123/2/4 124/2/4 128/2/4
f 124/4/4 125/4/4 129/4/4
f 128/2/4 124/2/4 129/2/4
f 129/4/4 125/4/4 130/4/4
f 127/4/4 128/4/4 131/4/4
f 128/4/4 129/4/4 131/4/4
f 131/4/4 129/4/4 132/4/4
f 133/6/4 134/6/4 135/6/4
f 135/6/4 134/6/4 136/6/4
f 133/6/4 135/6/4 138/6/4
f 137/6/4 138/6/4 139/6/4
f 138/6/4 135/6/4 140/6/4
f 139/6/4 138/6/4 140/6/4
f 140/6/4 135/6/4 141/6/4
f 140/6/4 141/6/4 143/6/4
f 141/6/4 142/6/4 143/6/4
f 143/6/4 142/6/4 144/6/4
f 147/6/5 146/6/5 145/6/5
f 148/6/5 146/6/5 147/6/5
f 151/6/5 150/6/5 149/6/5
f 152/6/5 150/6/5 151/6/5
f 153/6/5 151/6/5 149/6/5
f 154/6/5 150/6/5 152/6/5
f 155/6/5 153/6/5 149/6/5
f 155/6/5 154/6/5 153/6/5
f 156/6/5 150/6/5 154/6/5
f 156/6/5 154/6/5 155/6/5
f 161/6/5 158/6/5 157/6/5
f 162/6/5 158/6/5 161/6/5
f 163/6/5 160/6/5 159/6/5
f 164/6/5 160/6/5 163/6/5
f 165/6/6 166/6/6 167/6/6
f 167/6/6 166/6/6 168/6/6
f 168/6/6 166/6/6 169/6/6
f 169/6/6 166/6/6 170/6/6
f 165/6/6 167/6/6 171/6/6
f 170/6/6 166/6/6 174/6/6
f 172/6/6 173/6/6 175/6/6
f 173/6/6 174/6/6 175/6/6
f 165/6/6 171/6/6 175/6/6
f 171/6/6 172/6/6 175/6/6
f 174/6/6 166/6/6 176/6/6
f 175/6/6 174/6/6 176/6/6
f 177/6/6 178/6/6 181/6/6
f 181/6/6 178/6/6 182/6/6
f 179/6/6 180/6/6 183/6/6
f 183/6/6 180/6/6 184/6/6
f 185/1/6 186/1/6 189/1/6
f 189/1/6 186/1/6 190/1/6
f 187/4/6 188/4/6 191/4/6
f 191/4/6 188/4/6 192/4/6
f 193/1/6 194/1/6 197/1/6
f 197/1/6 194/1/6 198/1/6
f 195/4/6 196/4/6 199/4/6
f 199/4/6 196/4/6 200/4/6
f 201/1/6 202/1/6 204/1/6
f 202/2/6 203/2/6 205/2/6
f 204/1/6 202/1/6 205/1/6
f 205/2/6 203/2/6 206/2/6
